<?xml version="1.0" encoding="iso-8859-1"?>
<!-- Generator: Adobe Illustrator 16.0.0, SVG Export Plug-In . SVG Version: 6.00 Build 0)  -->
<!DOCTYPE svg PUBLIC "-//W3C//DTD SVG 1.1//EN" "http://www.w3.org/Graphics/SVG/1.1/DTD/svg11.dtd">
<svg version="1.1" id="Layer_1" xmlns="http://www.w3.org/2000/svg" xmlns:xlink="http://www.w3.org/1999/xlink" x="0px" y="0px"
	 width="428.875px" height="487.001px" viewBox="0 0 428.875 487.001" style="enable-background:new 0 0 428.875 487.001;"
	 xml:space="preserve">
<g id="change1">
	<path style="fill:#F7941E;" d="M95.85,127.655c0,0-89.811-0.119-95.729,166.287c-3.357,94.379,64.271,130.331,64.271,130.331
		s20.228,52.812,69.662,44.945c0,0,20.221,23.595,66.289,12.356c0,0,15.73,16.294,32.584-7.584c0,0,41.568,36.709,82.017-14.931
		c0,0,42.7,5.668,52.812-39.276c0,0,61.121,12.429,61.121-166.29c0-101.122-106.059-138.199-106.059-138.199
		s-44.952-11.238-49.441-6.741c-4.49,4.496,4.489-4.497,4.489-4.497S130.68,77.094,95.85,127.655z"/>
</g>
<g id="change2">
	<polygon style="fill:#3C3636;" points="143.04,196.191 182.366,285.199 96.976,285.199 	"/>
	<polygon style="fill:#3C3636;" points="211.941,288.681 237.297,346.076 182.244,346.076 	"/>
	<polygon style="fill:#3C3636;" points="293.257,196.191 332.586,285.199 247.2,285.199 	"/>
	<path style="fill:#3C3636;" d="M114.952,360.23c0,0,46.067,22.133,60.672,19.368v20.816h25.843v-20.092
		c0,0,92.066,2.844,115.726-20.093c0,0,6.07,78.843-69.994,67.77v-27.585h-15.393v28.651
		C231.807,429.066,128.264,454.123,114.952,360.23z"/>
</g>
<g id="change3">
	<path style="fill:#9FB140;" d="M300.486,110.376c0,0-28.361-14.181-51.956-9.688c0,0-24.721-11.234-11.238-40.448
		s51.687-25.843,51.687-25.843l17.709-24.612c0,0-35.688-23.7-77.263,2.666c-32.183,20.416-47.187,69.136-47.187,69.136
		s-25.995,16.574-47.19,24.721l34.83-5.619c0,0-15.728,23.595-12.357,26.966c0,0,32.581-25.843,39.323-19.102l-6.742,19.102
		c0,0,26.028-30.277,43.819,6.741c0,0-0.151-37.522,47.19-6.741l-4.497-14.605L300.486,110.376z"/>
</g>
</svg>
